<?xml version="1.0" standalone="no"?>
<!DOCTYPE svg PUBLIC "-//W3C//DTD SVG 20010904//EN"
 "http://www.w3.org/TR/2001/REC-SVG-20010904/DTD/svg10.dtd">
<svg version="1.0" xmlns="http://www.w3.org/2000/svg"
 width="832.000000pt" height="832.000000pt" viewBox="0 0 832.000000 832.000000"
 preserveAspectRatio="xMidYMid meet">
<metadata>
Created by potrace 1.11, written by Peter Selinger 2001-2013
</metadata>
<g transform="translate(0.000000,832.000000) scale(0.100000,-0.100000)"
fill="#000000" stroke="none">
<path d="M3958 7974 c-2 -1 -35 -5 -73 -8 -39 -3 -87 -8 -108 -11 -20 -3 -52
-7 -69 -10 -18 -2 -58 -9 -88 -16 -30 -6 -66 -12 -80 -14 -44 -6 -188 -45
-290 -77 -77 -25 -231 -82 -280 -105 -380 -174 -631 -346 -922 -634 -82 -80
-148 -149 -148 -153 0 -5 -8 -16 -18 -25 -10 -9 -33 -36 -52 -61 -19 -25 -37
-47 -40 -50 -11 -9 -126 -174 -156 -223 -70 -116 -86 -145 -110 -192 -14 -27
-29 -57 -34 -65 -6 -8 -23 -44 -39 -80 -16 -36 -39 -87 -51 -115 -32 -71 -120
-336 -120 -361 0 -11 -3 -24 -7 -28 -5 -4 -8 -11 -9 -14 0 -6 -16 -88 -19
-102 -9 -41 -16 -70 -20 -95 -3 -16 -7 -41 -9 -55 -3 -14 -8 -47 -11 -75 -4
-27 -8 -61 -10 -75 -5 -36 -18 -266 -18 -325 0 -48 13 -289 18 -330 3 -26 15
-112 21 -145 2 -14 7 -41 10 -60 21 -131 98 -397 159 -555 72 -185 280 -567
318 -583 4 -2 7 -10 7 -18 0 -8 4 -14 8 -14 4 0 16 -13 25 -30 10 -16 23 -35
30 -42 7 -7 26 -31 42 -53 17 -22 34 -44 38 -50 5 -5 40 -55 78 -110 38 -55
76 -108 83 -117 8 -9 20 -27 27 -39 11 -22 21 -35 46 -64 7 -7 13 -16 13 -19
0 -3 21 -35 48 -71 26 -37 52 -74 57 -84 23 -38 130 -186 137 -189 4 -2 8 -9
8 -15 0 -6 7 -19 17 -29 9 -10 21 -27 27 -37 6 -11 39 -59 73 -108 35 -48 67
-95 73 -103 5 -8 34 -49 64 -91 30 -42 59 -86 65 -97 6 -11 17 -26 24 -34 7
-7 47 -62 88 -123 168 -245 213 -310 218 -315 4 -3 20 -25 36 -50 17 -25 63
-91 103 -147 39 -57 72 -107 72 -112 0 -5 4 -11 8 -13 4 -1 33 -39 63 -83 31
-44 128 -183 216 -310 88 -126 175 -252 194 -280 19 -27 36 -52 39 -55 3 -3
25 -34 50 -70 82 -120 116 -152 206 -196 152 -73 344 -44 458 70 23 23 75 90
116 150 41 59 82 116 90 127 8 10 34 47 58 81 23 35 90 131 147 213 58 83 111
159 117 169 7 10 29 41 48 67 19 27 75 106 123 176 49 71 129 187 178 258 49
72 96 138 104 148 8 9 15 20 15 23 0 2 5 10 11 17 25 29 349 499 349 508 0 5
4 9 8 9 5 0 24 24 43 53 18 28 118 173 221 320 104 147 188 272 188 277 0 4 4
10 8 12 4 1 28 32 52 68 25 36 48 69 53 75 4 5 41 57 82 115 41 58 111 155
155 216 75 106 182 283 182 301 0 4 4 14 10 20 53 65 214 484 253 658 1 6 5
21 8 35 4 14 9 37 12 52 3 16 7 38 10 50 13 61 16 76 20 118 3 25 8 55 10 67
21 94 32 398 21 583 -6 86 -9 119 -21 200 -10 69 -17 117 -21 140 -4 26 -32
153 -39 180 -2 8 -11 42 -20 75 -9 33 -18 67 -20 75 -13 57 -130 358 -146 375
-5 5 -9 14 -9 20 0 14 -111 221 -156 293 -19 28 -33 54 -31 56 1 3 -7 15 -19
28 -11 13 -42 55 -69 93 -27 39 -52 72 -55 75 -3 3 -19 23 -36 45 -66 89 -308
339 -413 425 -243 202 -534 376 -816 488 -97 38 -205 76 -215 75 -3 0 -16 4
-30 9 -45 18 -176 51 -290 73 -14 3 -35 7 -47 10 -12 3 -41 7 -65 10 -24 3
-60 8 -82 11 -21 3 -61 8 -90 11 -54 5 -484 12 -488 7z m481 -448 c13 -3 49
-8 80 -12 31 -3 65 -8 76 -10 69 -15 123 -26 145 -30 14 -3 34 -8 45 -11 11
-4 26 -8 33 -9 36 -6 223 -69 270 -90 29 -13 57 -24 63 -24 13 0 236 -112 288
-144 22 -14 45 -26 51 -26 5 0 10 -4 10 -10 0 -5 6 -10 13 -10 8 0 22 -9 32
-20 10 -11 23 -20 29 -20 6 0 22 -9 36 -20 14 -11 72 -56 130 -102 105 -82
291 -261 365 -351 22 -27 45 -54 50 -60 122 -143 283 -420 365 -627 61 -152
121 -353 136 -455 3 -16 9 -52 14 -80 20 -102 33 -268 33 -405 -1 -95 -11
-273 -18 -310 -3 -14 -8 -45 -11 -70 -16 -121 -104 -463 -125 -485 -5 -5 -9
-15 -9 -23 0 -7 -8 -32 -19 -55 -10 -23 -29 -67 -42 -97 -13 -30 -26 -57 -30
-60 -3 -3 -10 -16 -14 -30 -4 -14 -19 -42 -31 -62 -13 -21 -24 -42 -24 -47 0
-12 -180 -281 -206 -308 -11 -11 -25 -28 -31 -39 -7 -10 -39 -56 -70 -101 -32
-45 -98 -141 -148 -213 -49 -72 -96 -138 -103 -148 -7 -9 -64 -91 -128 -182
-63 -91 -130 -187 -149 -215 -20 -27 -75 -106 -122 -175 -48 -69 -115 -165
-150 -215 -35 -49 -80 -115 -99 -145 -20 -30 -41 -56 -45 -58 -5 -2 -9 -8 -9
-13 0 -6 -5 -15 -11 -22 -6 -7 -62 -86 -124 -177 -63 -91 -118 -169 -122 -175
-23 -28 -83 -116 -83 -120 0 -3 -6 -13 -12 -21 -7 -8 -18 -20 -23 -27 -6 -7
-32 -46 -60 -87 -27 -41 -57 -84 -67 -94 -10 -11 -20 -28 -24 -38 -3 -10 -9
-18 -14 -18 -4 0 -15 -15 -24 -32 -9 -18 -41 -67 -71 -108 -30 -41 -59 -82
-65 -90 -101 -147 -185 -266 -192 -268 -4 -2 -8 -8 -8 -13 0 -5 -13 -27 -29
-50 l-30 -40 -42 63 c-24 35 -49 69 -56 76 -7 7 -13 19 -13 27 0 7 -4 15 -8
17 -5 2 -59 75 -120 163 -120 173 -209 302 -370 532 -56 82 -108 157 -115 167
-6 10 -21 31 -32 45 -12 14 -39 53 -60 86 -22 33 -42 62 -45 65 -6 5 -70 98
-119 173 -13 20 -28 37 -33 37 -4 0 -8 5 -8 10 0 8 -235 351 -380 555 -121
170 -270 388 -270 395 0 4 -4 10 -8 12 -5 2 -29 33 -55 71 -26 37 -67 95 -91
130 -24 34 -63 91 -87 127 -24 35 -51 72 -59 81 -62 69 -189 252 -249 359 -31
56 -86 166 -113 230 -9 19 -23 51 -31 70 -9 19 -23 58 -32 85 -22 67 -22 69
-24 78 0 4 -7 23 -15 42 -8 19 -13 35 -10 35 2 0 -2 16 -10 35 -8 19 -13 35
-11 35 2 0 -1 15 -6 33 -5 17 -11 43 -14 57 -3 14 -7 36 -10 50 -15 76 -19 97
-21 120 -1 14 -2 25 -3 25 -3 0 -10 69 -17 155 -10 146 -7 276 11 490 4 53 18
133 35 205 6 28 13 59 15 70 9 65 104 357 134 413 6 9 30 60 55 114 25 53 67
133 95 178 28 45 51 84 51 86 0 3 5 10 10 17 6 7 31 41 57 77 87 122 158 205
285 330 134 132 159 154 272 237 39 29 76 56 81 61 6 5 32 22 59 38 26 16 64
39 84 52 167 103 528 249 690 278 14 3 29 7 33 9 4 3 24 7 44 11 21 3 47 8 59
10 21 4 56 10 111 19 17 3 64 8 105 11 41 4 76 8 78 9 6 5 426 -3 451 -9z"/>
<path d="M3958 6695 c-2 -2 -28 -5 -58 -8 -76 -8 -203 -35 -275 -59 -33 -10
-67 -21 -76 -23 -73 -16 -394 -182 -419 -216 -3 -4 -22 -19 -42 -32 -65 -45
-193 -165 -281 -266 -111 -127 -245 -364 -302 -535 -9 -26 -18 -56 -21 -65
-51 -208 -52 -213 -61 -311 -9 -90 -8 -295 1 -365 4 -27 8 -61 10 -75 3 -24 6
-37 28 -130 28 -122 98 -300 163 -419 17 -29 34 -62 40 -72 5 -11 13 -19 17
-19 5 0 8 -5 8 -11 0 -13 107 -153 168 -221 45 -49 96 -98 151 -145 14 -12 33
-28 41 -36 29 -26 156 -112 205 -140 65 -36 234 -117 245 -117 5 0 29 -9 54
-20 25 -10 56 -21 69 -23 12 -2 29 -6 37 -9 8 -4 35 -11 60 -16 120 -28 94
-24 225 -37 132 -13 348 -8 429 10 12 3 33 7 49 10 90 17 157 35 267 72 79 27
222 95 289 137 22 15 43 26 46 26 3 0 11 5 18 10 7 6 37 29 67 51 218 158 390
359 514 599 71 136 129 301 153 430 28 153 31 189 28 360 -2 102 -6 196 -8
210 -10 55 -29 146 -31 155 -2 6 -6 24 -10 40 -12 46 -46 157 -56 180 -5 11
-24 54 -43 95 -18 41 -34 79 -35 83 -1 4 -8 15 -17 23 -8 9 -15 22 -15 30 0 8
-4 14 -10 14 -5 0 -10 5 -10 11 0 13 -98 155 -143 209 -95 113 -298 300 -325
300 -6 0 -12 4 -14 9 -8 23 -314 191 -347 191 -5 0 -28 9 -52 19 -68 31 -233
71 -349 86 -88 11 -373 19 -382 10z m447 -470 c55 -14 107 -28 115 -30 29 -6
145 -59 161 -72 8 -7 20 -13 25 -13 5 0 43 -22 85 -49 248 -159 432 -398 520
-676 33 -103 53 -201 44 -215 -3 -6 -2 -10 3 -10 12 0 13 -281 1 -325 -4 -16
-10 -46 -13 -65 -2 -19 -8 -46 -11 -60 -4 -14 -9 -36 -12 -50 -3 -14 -23 -66
-43 -115 -63 -156 -153 -294 -265 -408 -59 -59 -188 -167 -201 -167 -4 0 -15
-6 -23 -14 -40 -37 -261 -137 -331 -151 -8 -2 -33 -8 -55 -14 -56 -14 -102
-22 -157 -26 -25 -1 -50 -4 -55 -7 -20 -9 -284 6 -304 18 -3 2 -21 6 -40 9
-218 41 -445 164 -616 333 -99 98 -106 107 -172 206 -77 115 -158 303 -175
408 -3 15 -7 31 -9 35 -18 29 -26 291 -13 393 11 92 38 208 63 270 3 8 7 20 8
25 4 14 72 153 97 195 11 19 44 67 73 105 162 215 386 373 638 449 148 45 219
54 407 50 128 -2 172 -7 255 -29z"/>
</g>
</svg>
